<svg xmlns="http://www.w3.org/2000/svg" width="78" height="72" fill="none"><path fill="#81B3D2" d="M30.9 65h16.5V41.1H30.9v23.7Zm13.5-3H33.9V44h10.4v18Z"/><path fill="#81B3D2" d="m75.3 39.2 2.2-2.1-10.2-9.9V.4H53v13.1L39 0 .4 37.2l2.1 2 8-7.7v37.6h-4V72h66v-2.9h-5.3V31.4l8 7.8ZM56 3.4h8.2v21L56 16.5V3.4ZM64.3 69H13.8V28.5L38.9 4.2l25.3 24.3V69Z"/><path fill="#81B3D2" d="M31.2 27a8 8 0 0 0 8 7.8 8 8 0 0 0 8-7.8c0-4.2-3.6-7.6-8-7.6-4.5 0-8 3.4-8 7.6Zm8-5a5 5 0 0 1 5 5 5 5 0 0 1-5 5 5 5 0 0 1-5.2-5c0-2.6 2.3-5 5.1-5ZM21 41.2h-3.1V45h3v-3.8Zm6 0h-3V45h3v-3.8Zm-6 5.9h-3.1v4h3v-4Zm6 0h-3v4h3v-4Zm26.9-5.9h-3.1V45h3v-3.8Zm6.1 0h-3V45h3v-3.8Zm-6.1 5.9h-3.1v4h3v-4Zm6.1 0h-3v4h3v-4Z"/></svg>